<?xml version="1.0" encoding="UTF-8" standalone="no"?>
<!DOCTYPE svg PUBLIC "-//W3C//DTD SVG 1.1//EN"
 "http://www.w3.org/Graphics/SVG/1.1/DTD/svg11.dtd">
<!-- Generated by graphviz version 2.44.0 ()
 -->
<!-- Title: hdf5_module::extend_flow Pages: 1 -->
<svg width="584pt" height="165pt"
 viewBox="0.00 0.00 584.00 164.50" xmlns="http://www.w3.org/2000/svg" xmlns:xlink="http://www.w3.org/1999/xlink">
<g id="graph0" class="graph" transform="scale(1 1) rotate(0) translate(4 160.5)">
<title>hdf5_module::extend_flow</title>
<polygon fill="white" stroke="transparent" points="-4,4 -4,-160.5 580,-160.5 580,4 -4,4"/>
<!-- Node1 -->
<g id="node1" class="node">
<title>Node1</title>
<g id="a_node1"><a xlink:title="Extend the flow in the file With every call a new group is created and the flows are written in this ...">
<polygon fill="#bfbfbf" stroke="black" points="0,-60.5 0,-79.5 128,-79.5 128,-60.5 0,-60.5"/>
<text text-anchor="middle" x="64" y="-67.5" font-family="Helvetica,sans-Serif" font-size="10.00">hdf5_module::extend_flow</text>
</a>
</g>
</g>
<!-- Node2 -->
<g id="node2" class="node">
<title>Node2</title>
<g id="a_node2"><a xlink:href="namespacehdf5__module.html#aae22efef4d912e845e2c61def9181f9f" target="_top" xlink:title="Create a hdf5 entry with constant values.">
<polygon fill="white" stroke="black" points="171.5,-126 171.5,-156 278.5,-156 278.5,-126 171.5,-126"/>
<text text-anchor="start" x="179.5" y="-144" font-family="Helvetica,sans-Serif" font-size="10.00">hdf5_module::create</text>
<text text-anchor="middle" x="225" y="-133" font-family="Helvetica,sans-Serif" font-size="10.00">_constant_1d_arrays</text>
</a>
</g>
</g>
<!-- Node1&#45;&gt;Node2 -->
<g id="edge1" class="edge">
<title>Node1&#45;&gt;Node2</title>
<path fill="none" stroke="midnightblue" d="M84.18,-79.55C104.01,-89.31 135.93,-104.74 164,-117 167.87,-118.69 171.91,-120.41 175.97,-122.1"/>
<polygon fill="midnightblue" stroke="midnightblue" points="174.86,-125.43 185.44,-125.99 177.52,-118.95 174.86,-125.43"/>
</g>
<!-- Node4 -->
<g id="node4" class="node">
<title>Node4</title>
<g id="a_node4"><a xlink:href="namespaceerror__msg__class.html#a7e065585cc806a5c264de1f088266498" target="_top" xlink:title="Converts a given integer to a string.">
<polygon fill="white" stroke="black" points="472,-55 472,-85 576,-85 576,-55 472,-55"/>
<text text-anchor="start" x="480" y="-73" font-family="Helvetica,sans-Serif" font-size="10.00">error_msg_class::int</text>
<text text-anchor="middle" x="524" y="-62" font-family="Helvetica,sans-Serif" font-size="10.00">_to_str</text>
</a>
</g>
</g>
<!-- Node1&#45;&gt;Node4 -->
<g id="edge7" class="edge">
<title>Node1&#45;&gt;Node4</title>
<path fill="none" stroke="midnightblue" d="M128.11,-68.53C140.03,-68.31 152.4,-68.12 164,-68 284.88,-66.78 315.12,-66.61 436,-68 444.36,-68.1 453.17,-68.24 461.85,-68.42"/>
<polygon fill="midnightblue" stroke="midnightblue" points="461.87,-71.92 471.94,-68.63 462.02,-64.92 461.87,-71.92"/>
</g>
<!-- Node5 -->
<g id="node5" class="node">
<title>Node5</title>
<g id="a_node5"><a xlink:href="namespacehdf5__module.html#afbf1071900336a7ed8fcb9b8980a6682" target="_top" xlink:title="Create a hdf5 entry with constant values.">
<polygon fill="white" stroke="black" points="164,-77 164,-107 286,-107 286,-77 164,-77"/>
<text text-anchor="start" x="172" y="-95" font-family="Helvetica,sans-Serif" font-size="10.00">hdf5_module::create</text>
<text text-anchor="middle" x="225" y="-84" font-family="Helvetica,sans-Serif" font-size="10.00">_constant_1d_int_arrays</text>
</a>
</g>
</g>
<!-- Node1&#45;&gt;Node5 -->
<g id="edge4" class="edge">
<title>Node1&#45;&gt;Node5</title>
<path fill="none" stroke="midnightblue" d="M128.3,-78.76C136.61,-79.91 145.17,-81.09 153.59,-82.26"/>
<polygon fill="midnightblue" stroke="midnightblue" points="153.38,-85.76 163.77,-83.67 154.34,-78.83 153.38,-85.76"/>
</g>
<!-- Node6 -->
<g id="node6" class="node">
<title>Node6</title>
<g id="a_node6"><a xlink:href="namespaceflow__module.html#abc43d409c31b1ecc0a0de0bae2276c0b" target="_top" xlink:title="Sort flows and remove zero flows to prepare them for output. Updates the output_* arrays....">
<polygon fill="white" stroke="black" points="170.5,-0.5 170.5,-19.5 279.5,-19.5 279.5,-0.5 170.5,-0.5"/>
<text text-anchor="middle" x="225" y="-7.5" font-family="Helvetica,sans-Serif" font-size="10.00">flow_module::flowsort</text>
</a>
</g>
</g>
<!-- Node1&#45;&gt;Node6 -->
<g id="edge6" class="edge">
<title>Node1&#45;&gt;Node6</title>
<path fill="none" stroke="midnightblue" d="M90.19,-60.49C116.86,-50.43 159.15,-34.47 189.04,-23.19"/>
<polygon fill="midnightblue" stroke="midnightblue" points="190.54,-26.37 198.66,-19.56 188.07,-19.82 190.54,-26.37"/>
</g>
<!-- Node3 -->
<g id="node3" class="node">
<title>Node3</title>
<g id="a_node3"><a xlink:href="namespaceerror__msg__class.html#a2453d3b7cb363115c046840baa1dfb75" target="_top" xlink:title="Raise a exception with a given error message.">
<polygon fill="white" stroke="black" points="322,-77 322,-107 436,-107 436,-77 322,-77"/>
<text text-anchor="start" x="330" y="-95" font-family="Helvetica,sans-Serif" font-size="10.00">error_msg_class::raise</text>
<text text-anchor="middle" x="379" y="-84" font-family="Helvetica,sans-Serif" font-size="10.00">_exception</text>
</a>
</g>
</g>
<!-- Node2&#45;&gt;Node3 -->
<g id="edge2" class="edge">
<title>Node2&#45;&gt;Node3</title>
<path fill="none" stroke="midnightblue" d="M272.85,-125.9C288.23,-120.94 305.5,-115.37 321.52,-110.21"/>
<polygon fill="midnightblue" stroke="midnightblue" points="322.87,-113.45 331.31,-107.05 320.72,-106.79 322.87,-113.45"/>
</g>
<!-- Node3&#45;&gt;Node4 -->
<g id="edge3" class="edge">
<title>Node3&#45;&gt;Node4</title>
<path fill="none" stroke="midnightblue" d="M436.11,-83.37C444.54,-82.07 453.28,-80.73 461.81,-79.41"/>
<polygon fill="midnightblue" stroke="midnightblue" points="462.36,-82.87 471.71,-77.89 461.3,-75.95 462.36,-82.87"/>
</g>
<!-- Node5&#45;&gt;Node3 -->
<g id="edge5" class="edge">
<title>Node5&#45;&gt;Node3</title>
<path fill="none" stroke="midnightblue" d="M286.07,-92C294.45,-92 303.1,-92 311.58,-92"/>
<polygon fill="midnightblue" stroke="midnightblue" points="311.83,-95.5 321.83,-92 311.83,-88.5 311.83,-95.5"/>
</g>
</g>
</svg>
