<?xml version="1.0" encoding="UTF-8" standalone="no"?>
<!DOCTYPE svg PUBLIC "-//W3C//DTD SVG 1.1//EN"
 "http://www.w3.org/Graphics/SVG/1.1/DTD/svg11.dtd">
<!-- Generated by graphviz version 2.44.0 ()
 -->
<!-- Title: network_init_module::rate_variation Pages: 1 -->
<svg width="704pt" height="253pt"
 viewBox="0.00 0.00 704.00 252.50" xmlns="http://www.w3.org/2000/svg" xmlns:xlink="http://www.w3.org/1999/xlink">
<g id="graph0" class="graph" transform="scale(1 1) rotate(0) translate(4 248.5)">
<title>network_init_module::rate_variation</title>
<polygon fill="white" stroke="transparent" points="-4,4 -4,-248.5 700,-248.5 700,4 -4,4"/>
<!-- Node1 -->
<g id="node1" class="node">
<title>Node1</title>
<g id="a_node1"><a xlink:title="This routine is used to vary rates by constant factors.">
<polygon fill="#bfbfbf" stroke="black" points="0,-137.5 0,-167.5 106,-167.5 106,-137.5 0,-137.5"/>
<text text-anchor="start" x="8" y="-155.5" font-family="Helvetica,sans-Serif" font-size="10.00">network_init_module</text>
<text text-anchor="middle" x="53" y="-144.5" font-family="Helvetica,sans-Serif" font-size="10.00">::rate_variation</text>
</a>
</g>
</g>
<!-- Node2 -->
<g id="node2" class="node">
<title>Node2</title>
<g id="a_node2"><a xlink:href="namespacebenam__class.html#ad20c821347dd5f7c08dff59c98e69657" target="_top" xlink:title="Returns the index number of isotope &#39;name&#39;.">
<polygon fill="white" stroke="black" points="145,-225 145,-244 253,-244 253,-225 145,-225"/>
<text text-anchor="middle" x="199" y="-232" font-family="Helvetica,sans-Serif" font-size="10.00">benam_class::benam</text>
</a>
</g>
</g>
<!-- Node1&#45;&gt;Node2 -->
<g id="edge1" class="edge">
<title>Node1&#45;&gt;Node2</title>
<path fill="none" stroke="midnightblue" d="M74.69,-167.65C92.12,-180.05 117.99,-197.58 142,-210.5 148.79,-214.15 156.25,-217.67 163.45,-220.84"/>
<polygon fill="midnightblue" stroke="midnightblue" points="162.45,-224.21 173.02,-224.91 165.19,-217.77 162.45,-224.21"/>
</g>
<!-- Node3 -->
<g id="node3" class="node">
<title>Node3</title>
<g id="a_node3"><a xlink:href="namespacefile__handling__class.html#a01ba26324d7662cc0fb2e0eb306cd3e2" target="_top" xlink:title="Close an external file.">
<polygon fill="white" stroke="black" points="300,-137.5 300,-167.5 398,-167.5 398,-137.5 300,-137.5"/>
<text text-anchor="start" x="308" y="-155.5" font-family="Helvetica,sans-Serif" font-size="10.00">file_handling_class</text>
<text text-anchor="middle" x="349" y="-144.5" font-family="Helvetica,sans-Serif" font-size="10.00">::close_io_file</text>
</a>
</g>
</g>
<!-- Node1&#45;&gt;Node3 -->
<g id="edge2" class="edge">
<title>Node1&#45;&gt;Node3</title>
<path fill="none" stroke="midnightblue" d="M106.22,-152.5C157.69,-152.5 236.17,-152.5 289.66,-152.5"/>
<polygon fill="midnightblue" stroke="midnightblue" points="289.68,-156 299.68,-152.5 289.68,-149 289.68,-156"/>
</g>
<!-- Node4 -->
<g id="node4" class="node">
<title>Node4</title>
<g id="a_node4"><a xlink:href="namespaceerror__msg__class.html#a7e065585cc806a5c264de1f088266498" target="_top" xlink:title="Converts a given integer to a string.">
<polygon fill="white" stroke="black" points="592,-137.5 592,-167.5 696,-167.5 696,-137.5 592,-137.5"/>
<text text-anchor="start" x="600" y="-155.5" font-family="Helvetica,sans-Serif" font-size="10.00">error_msg_class::int</text>
<text text-anchor="middle" x="644" y="-144.5" font-family="Helvetica,sans-Serif" font-size="10.00">_to_str</text>
</a>
</g>
</g>
<!-- Node1&#45;&gt;Node4 -->
<g id="edge6" class="edge">
<title>Node1&#45;&gt;Node4</title>
<path fill="none" stroke="midnightblue" d="M106.02,-161.52C117.82,-163.36 130.32,-165.15 142,-166.5 324.77,-187.7 373.24,-187.87 556,-166.5 564.3,-165.53 573.02,-164.34 581.6,-163.06"/>
<polygon fill="midnightblue" stroke="midnightblue" points="582.22,-166.5 591.58,-161.53 581.16,-159.58 582.22,-166.5"/>
</g>
<!-- Node6 -->
<g id="node6" class="node">
<title>Node6</title>
<g id="a_node6"><a xlink:href="namespacefile__handling__class.html#aab870caaf9cbaaf635d537708efbf793" target="_top" xlink:title="Same for reading (input file)">
<polygon fill="white" stroke="black" points="150,-93.5 150,-123.5 248,-123.5 248,-93.5 150,-93.5"/>
<text text-anchor="start" x="158" y="-111.5" font-family="Helvetica,sans-Serif" font-size="10.00">file_handling_class</text>
<text text-anchor="middle" x="199" y="-100.5" font-family="Helvetica,sans-Serif" font-size="10.00">::open_infile</text>
</a>
</g>
</g>
<!-- Node1&#45;&gt;Node6 -->
<g id="edge7" class="edge">
<title>Node1&#45;&gt;Node6</title>
<path fill="none" stroke="midnightblue" d="M103.15,-137.48C114.98,-133.87 127.73,-129.97 139.92,-126.25"/>
<polygon fill="midnightblue" stroke="midnightblue" points="141.01,-129.57 149.56,-123.3 138.97,-122.88 141.01,-129.57"/>
</g>
<!-- Node8 -->
<g id="node8" class="node">
<title>Node8</title>
<g id="a_node8"><a xlink:href="namespaceerror__msg__class.html#a339dd5b38c125b6a04653762c94a91f2" target="_top" xlink:title="Write data to the standard output (usually OUT)">
<polygon fill="white" stroke="black" points="142,-0.5 142,-30.5 256,-30.5 256,-0.5 142,-0.5"/>
<text text-anchor="start" x="150" y="-18.5" font-family="Helvetica,sans-Serif" font-size="10.00">error_msg_class::write</text>
<text text-anchor="middle" x="199" y="-7.5" font-family="Helvetica,sans-Serif" font-size="10.00">_data_to_std_out</text>
</a>
</g>
</g>
<!-- Node1&#45;&gt;Node8 -->
<g id="edge11" class="edge">
<title>Node1&#45;&gt;Node8</title>
<path fill="none" stroke="midnightblue" d="M69.96,-137.32C95.37,-113.14 145.15,-65.78 174.59,-37.77"/>
<polygon fill="midnightblue" stroke="midnightblue" points="177.14,-40.18 181.97,-30.75 172.31,-35.11 177.14,-40.18"/>
</g>
<!-- Node3&#45;&gt;Node4 -->
<g id="edge3" class="edge">
<title>Node3&#45;&gt;Node4</title>
<path fill="none" stroke="midnightblue" d="M398.05,-152.5C448.23,-152.5 527.09,-152.5 581.72,-152.5"/>
<polygon fill="midnightblue" stroke="midnightblue" points="581.96,-156 591.96,-152.5 581.96,-149 581.96,-156"/>
</g>
<!-- Node5 -->
<g id="node5" class="node">
<title>Node5</title>
<g id="a_node5"><a xlink:href="namespaceerror__msg__class.html#a2453d3b7cb363115c046840baa1dfb75" target="_top" xlink:title="Raise a exception with a given error message.">
<polygon fill="white" stroke="black" points="442,-93.5 442,-123.5 556,-123.5 556,-93.5 442,-93.5"/>
<text text-anchor="start" x="450" y="-111.5" font-family="Helvetica,sans-Serif" font-size="10.00">error_msg_class::raise</text>
<text text-anchor="middle" x="499" y="-100.5" font-family="Helvetica,sans-Serif" font-size="10.00">_exception</text>
</a>
</g>
</g>
<!-- Node3&#45;&gt;Node5 -->
<g id="edge4" class="edge">
<title>Node3&#45;&gt;Node5</title>
<path fill="none" stroke="midnightblue" d="M398.05,-138.21C410.63,-134.48 424.35,-130.4 437.49,-126.49"/>
<polygon fill="midnightblue" stroke="midnightblue" points="438.8,-129.75 447.39,-123.55 436.81,-123.04 438.8,-129.75"/>
</g>
<!-- Node5&#45;&gt;Node4 -->
<g id="edge5" class="edge">
<title>Node5&#45;&gt;Node4</title>
<path fill="none" stroke="midnightblue" d="M548.81,-123.52C560.19,-127.02 572.42,-130.78 584.18,-134.4"/>
<polygon fill="midnightblue" stroke="midnightblue" points="583.33,-137.8 593.92,-137.4 585.39,-131.11 583.33,-137.8"/>
</g>
<!-- Node6&#45;&gt;Node5 -->
<g id="edge10" class="edge">
<title>Node6&#45;&gt;Node5</title>
<path fill="none" stroke="midnightblue" d="M248.21,-108.5C298.07,-108.5 376.27,-108.5 431.88,-108.5"/>
<polygon fill="midnightblue" stroke="midnightblue" points="431.99,-112 441.99,-108.5 431.99,-105 431.99,-112"/>
</g>
<!-- Node7 -->
<g id="node7" class="node">
<title>Node7</title>
<g id="a_node7"><a xlink:href="namespacefile__handling__class.html#af02196bd5eaf70ecd5ab4cc650094d5e" target="_top" xlink:title="Finds the next unused unit number.">
<polygon fill="white" stroke="black" points="300,-49.5 300,-79.5 398,-79.5 398,-49.5 300,-49.5"/>
<text text-anchor="start" x="308" y="-67.5" font-family="Helvetica,sans-Serif" font-size="10.00">file_handling_class</text>
<text text-anchor="middle" x="349" y="-56.5" font-family="Helvetica,sans-Serif" font-size="10.00">::get_next_io_unit</text>
</a>
</g>
</g>
<!-- Node6&#45;&gt;Node7 -->
<g id="edge8" class="edge">
<title>Node6&#45;&gt;Node7</title>
<path fill="none" stroke="midnightblue" d="M248.05,-94.21C261.43,-90.24 276.11,-85.87 289.99,-81.74"/>
<polygon fill="midnightblue" stroke="midnightblue" points="291.35,-84.99 299.94,-78.79 289.35,-78.28 291.35,-84.99"/>
</g>
<!-- Node7&#45;&gt;Node5 -->
<g id="edge9" class="edge">
<title>Node7&#45;&gt;Node5</title>
<path fill="none" stroke="midnightblue" d="M398.05,-78.79C410.63,-82.52 424.35,-86.6 437.49,-90.51"/>
<polygon fill="midnightblue" stroke="midnightblue" points="436.81,-93.96 447.39,-93.45 438.8,-87.25 436.81,-93.96"/>
</g>
<!-- Node9 -->
<g id="node9" class="node">
<title>Node9</title>
<g id="a_node9"><a xlink:href="namespaceerror__msg__class.html#af62b9a0c5997255e792b9ebd7322a6a3" target="_top" xlink:title="Write the header of the standard output (usually OUT)">
<polygon fill="white" stroke="black" points="292,-0.5 292,-30.5 406,-30.5 406,-0.5 292,-0.5"/>
<text text-anchor="start" x="300" y="-18.5" font-family="Helvetica,sans-Serif" font-size="10.00">error_msg_class::write</text>
<text text-anchor="middle" x="349" y="-7.5" font-family="Helvetica,sans-Serif" font-size="10.00">_header</text>
</a>
</g>
</g>
<!-- Node8&#45;&gt;Node9 -->
<g id="edge12" class="edge">
<title>Node8&#45;&gt;Node9</title>
<path fill="none" stroke="midnightblue" d="M256.37,-8.92C264.62,-8.76 273.18,-8.71 281.6,-8.78"/>
<polygon fill="midnightblue" stroke="midnightblue" points="281.73,-12.28 291.78,-8.93 281.83,-5.28 281.73,-12.28"/>
</g>
<!-- Node9&#45;&gt;Node8 -->
<g id="edge13" class="edge">
<title>Node9&#45;&gt;Node8</title>
<path fill="none" stroke="midnightblue" d="M291.78,-22.07C283.54,-22.24 274.98,-22.29 266.56,-22.22"/>
<polygon fill="midnightblue" stroke="midnightblue" points="266.42,-18.72 256.37,-22.08 266.32,-25.72 266.42,-18.72"/>
</g>
</g>
</svg>
